<svg width="20" height="24" viewBox="0 0 20 24" fill="none" xmlns="http://www.w3.org/2000/svg">
<path d="M15.959 20.0372C14.3669 21.6144 12.2531 22.4801 9.9999 22.4801C7.74671 22.4801 5.63286 21.6144 4.0408 20.0372C2.45467 18.4629 1.58008 16.3758 1.58008 14.1552C1.58008 12.8655 1.87062 11.6292 2.44281 10.4789C3.00018 9.3553 3.8303 8.35026 4.83831 7.57646C5.48118 7.08489 6.06426 6.51972 6.57564 5.8925C7.31682 4.98826 7.89791 3.98025 8.30111 2.89813C8.4665 2.45175 8.58668 1.98991 8.65984 1.51953C9.37434 2.1777 9.97321 2.97225 10.4743 3.90317C11.4645 5.75909 11.921 7.41044 11.8321 8.81572C11.8108 9.14669 11.8649 9.47817 11.9902 9.78525C12.1155 10.0923 12.3088 10.367 12.5555 10.5886C12.7693 10.7818 13.0194 10.9305 13.2911 11.0262C13.5629 11.1219 13.851 11.1626 14.1387 11.146C14.7227 11.1163 15.2593 10.8584 15.6507 10.4226C16.045 9.98086 16.3859 9.53022 16.6705 9.07069C17.0856 9.60137 17.4325 10.1795 17.7082 10.8021C18.1796 11.8635 18.4197 12.993 18.4197 14.1552C18.4197 16.3758 17.5451 18.4659 15.959 20.0372Z" stroke="#0A2533" stroke-width="1.5" stroke-linejoin="round"/>
<path d="M11.6454 18.3089C11.0064 18.9419 10.1581 19.2894 9.25375 19.2894C8.34945 19.2894 7.50107 18.9419 6.86211 18.3089C6.22552 17.6771 5.87451 16.8394 5.87451 15.9482C5.87451 15.4306 5.99112 14.9344 6.22077 14.4728C6.44446 14.0218 6.77763 13.6184 7.18218 13.3079C7.44019 13.1106 7.67421 12.8837 7.87945 12.632C8.17692 12.2691 8.41013 11.8645 8.57196 11.4302C8.63833 11.2511 8.68657 11.0657 8.71593 10.877C9.00269 11.1411 9.24304 11.46 9.44413 11.8336C9.84155 12.5785 10.0248 13.2412 9.98909 13.8052C9.98057 13.9381 10.0023 14.0711 10.0525 14.1943C10.1028 14.3176 10.1804 14.4278 10.2794 14.5168C10.3652 14.5943 10.4656 14.654 10.5747 14.6924C10.6837 14.7308 10.7994 14.7471 10.9148 14.7405C11.1492 14.7286 11.3646 14.6251 11.5217 14.4501C11.6799 14.2729 11.8167 14.092 11.931 13.9076C12.0976 14.1205 12.2368 14.3526 12.3474 14.6024C12.5366 15.0284 12.633 15.4818 12.633 15.9482C12.633 16.8394 12.282 17.6783 11.6454 18.3089Z" stroke="#0A2533" stroke-width="1.5" stroke-linejoin="round"/>
</svg>
